<svg width="133" height="26" viewBox="0 0 133 26" fill="none" xmlns="http://www.w3.org/2000/svg">
<path d="M0 25.7673V0.501953H6.81156C11.8153 0.501953 14.3171 2.68782 14.3171 7.05956C14.3171 10.2379 12.5202 12.2465 8.92642 13.0852C10.2267 13.5496 11.164 14.2451 11.7385 15.1718C12.4424 16.4299 13.0377 18.45 13.5245 21.232L13.9208 23.0534C14.185 24.4664 14.3725 25.371 14.4832 25.7673H11.2419C11.0226 24.5531 10.703 22.6219 10.2831 19.9739C9.62534 16.1983 8.07126 14.2666 5.62094 14.1787H2.94202V25.7673H0ZM2.94202 11.4961H5.68674C9.43404 11.4961 11.3077 10.0172 11.3077 7.05956C11.3077 4.47626 9.65441 3.18461 6.34784 3.18461H2.94202V11.4961Z" fill="#FAF9FA"/>
<path d="M24.2087 0.0400391C29.0139 0.0400391 31.4166 4.36677 31.4166 13.0202C31.4166 21.6737 28.9695 26.0004 24.0755 26.0004C19.1814 26.0004 16.7344 21.7066 16.7344 13.119C16.7344 4.3997 19.2258 0.0400391 24.2087 0.0400391ZM24.0097 2.85444C21.1669 2.85444 19.7449 6.25401 19.7438 13.0532C19.7438 19.8084 21.1877 23.186 24.0755 23.186C26.9632 23.186 28.4071 19.8413 28.4071 13.152C28.4071 6.28695 26.9413 2.85444 24.0097 2.85444Z" fill="#FAF9FA"/>
<path d="M33.8633 25.5364V0.504883H39.4546C42.5397 0.504883 44.6228 1.01265 45.7038 2.02818C46.3498 2.59864 46.8646 3.30261 47.2127 4.09156C47.5608 4.88052 47.7338 5.73568 47.72 6.59809C47.72 9.51294 46.3309 11.4776 43.5528 12.492C46.7497 13.3747 48.3482 15.4821 48.3482 18.8141C48.3482 20.7782 47.6756 22.425 46.3303 23.7546C45.0959 24.9469 43.1893 25.543 40.6107 25.543L33.8633 25.5364ZM36.8053 11.1976H39.55C43.0331 11.1976 44.7746 9.74076 44.7746 6.827C44.7746 5.43489 44.3361 4.45229 43.459 3.8792C42.7749 3.44005 41.5623 3.22047 39.8214 3.22047H36.8119L36.8053 11.1976ZM36.8053 22.8208H40.0796C43.6284 22.8208 45.4029 21.3859 45.4029 18.5161C45.4029 15.4475 43.5182 13.9105 39.749 13.905H36.8053V22.8208Z" fill="#FAF9FA"/>
<path d="M58.0704 0.0400391C62.8756 0.0400391 65.2782 4.36677 65.2782 13.0202C65.2782 21.6737 62.8312 26.0004 57.9371 26.0004C53.0453 26.0004 50.5988 21.7066 50.5977 13.119C50.5977 4.3997 53.0886 0.0400391 58.0704 0.0400391ZM57.8713 2.85444C55.0285 2.85444 53.6071 6.25401 53.6071 13.0532C53.6071 19.8084 55.0505 23.186 57.9371 23.186C60.8238 23.186 62.2682 19.8413 62.2704 13.152C62.2704 6.28695 60.8041 2.85444 57.8713 2.85444Z" fill="#FAF9FA"/>
<path d="M81.7787 7.35631H78.6376C78.3087 4.33276 77.2173 2.82099 75.3634 2.82099C72.1446 2.82099 70.5357 6.3309 70.5368 13.3507C70.5368 19.9061 72.0799 23.1844 75.1661 23.1855C77.1713 23.1855 78.4825 21.4969 79.0998 18.1199H82.2424C81.338 23.3732 79.0674 25.9999 75.4308 25.9999C70.1607 25.9999 67.5262 21.7182 67.5273 13.1547C67.5273 9.26936 68.1665 6.11242 69.4448 3.68392C70.7232 1.22797 72.707 0 75.3963 0C79.1228 0 81.2502 2.4521 81.7787 7.35631Z" fill="#FAF9FA"/>
<path d="M91.9277 0.0400391C96.7341 0.0400391 99.1373 4.36677 99.1373 13.0202C99.1373 21.6737 96.6902 26.0004 91.7962 26.0004C86.9021 26.0004 84.4551 21.7066 84.4551 13.119C84.4562 4.3997 86.9471 0.0400391 91.9277 0.0400391ZM91.7304 2.85444C88.8854 2.85444 87.4634 6.25401 87.4645 13.0532C87.4645 19.8084 88.9084 23.186 91.7962 23.186C94.6839 23.186 96.1278 19.8413 96.1278 13.152C96.1289 6.28695 94.6637 2.85444 91.732 2.85444H91.7304Z" fill="#FAF9FA"/>
<path d="M101.586 25.5364V0.504883H106.519C112.89 0.504883 116.076 4.67681 116.076 13.0207C116.076 17.1267 115.205 20.361 113.464 22.7237C112.096 24.5999 109.935 25.5381 106.982 25.5381L101.586 25.5364ZM104.528 22.7253H106.778C108.981 22.7253 110.579 21.9524 111.571 20.4066C112.564 18.8608 113.06 16.3664 113.06 12.9235C113.06 6.52068 110.943 3.31928 106.71 3.31928H104.528V22.7253Z" fill="#FAF9FA"/>
<path d="M118.518 25.5364V0.504883H133.001V3.31928H121.461V11.3294H131.149V14.1454H121.461V22.7253H133.001V25.5397L118.518 25.5364Z" fill="#FAF9FA"/>
</svg>
