<svg width="1170" height="1618" viewBox="0 0 1170 1618" fill="none" xmlns="http://www.w3.org/2000/svg">
<path d="M20 1546H389.716C395.02 1546 400.107 1548.11 403.858 1551.86L464.142 1612.14C467.893 1615.89 472.98 1618 478.284 1618H691.716C697.02 1618 702.107 1615.89 705.858 1612.14L766.142 1551.86C769.893 1548.11 774.98 1546 780.284 1546H1150C1161.05 1546 1170 1537.05 1170 1526V20C1170 8.95435 1161.05 0 1150 0H20C8.95435 0 0 8.95422 0 20V1526C0 1537.05 8.95435 1546 20 1546Z" fill="#1646FF"/>
</svg>
