<svg width="34" height="34" viewBox="0 0 34 34" fill="none" xmlns="http://www.w3.org/2000/svg">
<circle cx="17" cy="17" r="17" fill="url(#paint0_linear_1666_12001)"/>
<path d="M17.001 6.80964C12.8231 6.80964 8.85579 6.43828 7.34042 10.3243C6.71449 11.9293 6.80539 14.0137 6.80539 16.9984C6.80539 19.6174 6.72139 22.0789 7.34042 23.6713C8.85234 27.5596 12.8519 27.1871 16.9987 27.1871C20.9994 27.1871 25.1244 27.6033 26.6582 23.6713C27.2853 22.0502 27.1932 19.9968 27.1932 16.9984C27.1932 13.0181 27.413 10.4485 25.4811 8.51926C23.5251 6.56475 20.8798 6.80964 16.9964 6.80964H17.001ZM16.0874 8.64572C24.8022 8.63193 25.9114 7.66387 25.2993 21.112C25.0818 25.8684 21.4574 25.3464 17.0022 25.3464C8.8788 25.3464 8.64523 25.1142 8.64523 16.9938C8.64523 8.77909 9.28958 8.65032 16.0874 8.64343V8.64572ZM22.4435 10.3369C21.7681 10.3369 21.2204 10.8842 21.2204 11.5591C21.2204 12.234 21.7681 12.7812 22.4435 12.7812C23.1189 12.7812 23.6666 12.234 23.6666 11.5591C23.6666 10.8842 23.1189 10.3369 22.4435 10.3369ZM17.001 11.766C14.1095 11.766 11.7657 14.1091 11.7657 16.9984C11.7657 19.8876 14.1095 22.2296 17.001 22.2296C19.8925 22.2296 22.2352 19.8876 22.2352 16.9984C22.2352 14.1091 19.8925 11.766 17.001 11.766ZM17.001 13.6021C21.4942 13.6021 21.5 20.3946 17.001 20.3946C12.509 20.3946 12.5021 13.6021 17.001 13.6021Z" fill="white"/>
<defs>
<linearGradient id="paint0_linear_1666_12001" x1="34" y1="0" x2="0" y2="34" gradientUnits="userSpaceOnUse">
<stop stop-color="#FFDD55"/>
<stop offset="0.5" stop-color="#FF543E"/>
<stop offset="1" stop-color="#C837AB"/>
</linearGradient>
</defs>
</svg>
