<svg width="34" height="34" viewBox="0 0 34 34" fill="none" xmlns="http://www.w3.org/2000/svg">
<path d="M34 17C34 17.5484 34 18.0968 33.919 18.6452C33.8656 19.1977 33.7827 19.7469 33.6708 20.2903C33.5635 20.8453 33.4284 21.3944 33.266 21.9355C33.1126 22.4673 32.9324 22.9908 32.7263 23.5039C32.5163 24.0194 32.2784 24.5229 32.014 25.0119C31.7513 25.5055 31.4653 25.9826 31.1559 26.4432C30.2197 27.8461 29.0828 29.0992 27.7829 30.1613C27.3547 30.5096 26.9078 30.8337 26.4444 31.1319C25.9822 31.443 25.5049 31.7304 25.0143 31.9929C24.5232 32.2561 24.0213 32.4919 23.5032 32.7058C22.9894 32.9163 22.4652 33.0993 21.9327 33.2542C21.4008 33.4199 20.8603 33.5554 20.3137 33.66C19.7632 33.7697 19.2127 33.8519 18.6622 33.9068C18.1117 33.9616 17.5577 33.9927 17 34C16.4423 34 15.8865 33.9726 15.3324 33.9177C14.7783 33.8629 14.2278 33.7806 13.681 33.671C13.1343 33.5663 12.5938 33.4309 12.0619 33.2652C11.5294 33.1103 11.0052 32.9272 10.4914 32.7168C9.95175 32.5029 9.47143 32.2671 8.98032 32.0039C8.49135 31.7376 8.01584 31.4466 7.55556 31.1319C7.09216 30.8337 6.64535 30.5096 6.21714 30.1613C5.35626 29.4564 4.56626 28.6665 3.85873 27.8032C3.50511 27.375 3.17365 26.9284 2.86571 26.4652C2.55989 26.0045 2.27386 25.5201 2.00762 25.0119C1.74315 24.5229 1.50533 24.0194 1.29524 23.5039C1.08915 22.9908 0.909019 22.4673 0.755556 21.9355C0.593202 21.3944 0.458106 20.8453 0.350794 20.2903C0.238884 19.7469 0.156012 19.1977 0.10254 18.6452C0.0269841 18.0968 0 17.5484 0 17C0 16.4516 0.0269841 15.9032 0.0809524 15.3548C0.134424 14.8023 0.217297 14.2531 0.329206 13.7097C0.436519 13.1547 0.571615 12.6056 0.733968 12.0645C0.886561 11.5324 1.06671 11.0089 1.27365 10.4961C1.48374 9.98056 1.72156 9.47711 1.98603 8.98806C2.26667 8.47989 2.55989 8.0028 2.86571 7.55677C3.17333 7.09065 3.50794 6.64645 3.85873 6.21323C4.20952 5.78 4.5873 5.37419 4.98127 4.97935C5.37441 4.59243 5.78691 4.22635 6.21714 3.88258C6.64556 3.51922 7.0923 3.17876 7.55556 2.86258C8.01968 2.55548 8.4946 2.27032 8.98571 2.0071C9.47683 1.74387 9.97873 1.50806 10.4968 1.29419C11.0149 1.08032 11.533 0.893871 12.0673 0.745806C12.6016 0.597742 13.1467 0.449677 13.6863 0.34C14.226 0.230323 14.7657 0.153548 15.3378 0.0987097C15.9098 0.043871 16.4441 0 17 0C17.5559 0 18.1117 0.0274194 18.6676 0.0822581C19.2235 0.137097 19.747 0.219355 20.319 0.323548C20.8911 0.427742 21.3984 0.570323 21.9381 0.729355C22.4778 0.888387 23.0175 1.08032 23.5086 1.27774C23.9997 1.47516 24.5286 1.72742 25.0197 1.99065C25.5108 2.25387 25.9857 2.53903 26.4498 2.84613C26.9106 3.15356 27.3556 3.48485 27.7829 3.83871C28.2131 4.18248 28.6256 4.54856 29.0187 4.93548C29.4127 5.33032 29.7905 5.74161 30.1413 6.16935C30.4921 6.5971 30.8267 7.04677 31.1343 7.5129C31.4419 7.97903 31.7279 8.45065 31.9924 8.94419C32.2569 9.43324 32.4947 9.93669 32.7048 10.4523C32.9117 10.965 33.0919 11.4886 33.2444 12.0206C33.4155 12.5757 33.5578 13.1395 33.6708 13.7097C33.7827 14.2531 33.8656 14.8023 33.919 15.3548C34 15.9032 34 16.4516 34 17Z" fill="#039BE5"/>
<path d="M7.77761 16.6323L24.1732 10.3094C24.9287 10.0352 25.5979 10.4959 25.3497 11.6475L22.5595 24.8088C22.3544 25.7411 21.7986 25.9714 21.0214 25.5272L16.7741 22.3959L14.7233 24.3701C14.6217 24.5025 14.4914 24.6095 14.3426 24.6827C14.1939 24.7559 14.0305 24.7934 13.8652 24.7923L14.1674 20.4656L22.0468 13.3365C22.3868 13.0349 21.9713 12.8649 21.5071 13.1665L11.7928 19.2975L7.59951 17.9869C6.68745 17.6962 6.66586 17.0765 7.7884 16.6378L7.77761 16.6323Z" fill="white"/>
</svg>
